<svg width="16" height="16" viewBox="0 0 16 16" fill="none" xmlns="http://www.w3.org/2000/svg">
<path d="M13.6569 2.34313C12.1458 0.832156 10.1369 0 8 0C5.86312 0 3.85416 0.832156 2.34313 2.34313C0.832156 3.85416 0 5.86312 0 8C0 10.1369 0.832156 12.1458 2.34313 13.6569C3.85416 15.1678 5.86312 16 8 16C10.1369 16 12.1458 15.1678 13.6569 13.6569C15.1678 12.1458 16 10.1369 16 8C16 5.86312 15.1678 3.85416 13.6569 2.34313ZM8 15.0625C4.10572 15.0625 0.9375 11.8943 0.9375 8C0.9375 4.10572 4.10572 0.9375 8 0.9375C11.8943 0.9375 15.0625 4.10572 15.0625 8C15.0625 11.8943 11.8943 15.0625 8 15.0625Z" fill="#FFCC4A"/>
<path d="M13.1333 6.27473C13.0782 6.10504 12.9315 5.98135 12.7549 5.9557L9.75978 5.52048L8.42034 2.80645C8.34137 2.64645 8.1784 2.54517 8 2.54517C7.82159 2.54517 7.65862 2.64648 7.57965 2.80645L6.24021 5.52048L3.24509 5.9557C3.06853 5.98135 2.92184 6.10504 2.86672 6.27473C2.81156 6.44442 2.85756 6.6307 2.98531 6.75523L5.15259 8.86782L4.64096 11.8508C4.61081 12.0267 4.68309 12.2044 4.82743 12.3093C4.97181 12.4142 5.16315 12.428 5.32109 12.345L7.99996 10.9366L10.6789 12.345C10.7474 12.381 10.8223 12.3988 10.897 12.3988C10.9942 12.3988 11.0909 12.3686 11.1725 12.3093C11.3169 12.2044 11.3892 12.0267 11.359 11.8508L10.8474 8.86782L13.0147 6.75523C13.1424 6.63073 13.1884 6.44445 13.1333 6.27473ZM10.0165 8.36851C9.90606 8.4762 9.85565 8.63136 9.88171 8.78342L10.2744 11.0732L8.21809 9.99214C8.14981 9.95623 8.07487 9.93829 7.99996 9.93829C7.92506 9.93829 7.85012 9.95623 7.78184 9.99214L5.7255 11.0732L6.11821 8.78345C6.14428 8.63139 6.09387 8.47623 5.9834 8.36854L4.31978 6.74692L6.61884 6.41285C6.7715 6.39067 6.9035 6.29476 6.97178 6.15642L7.99996 4.07307L9.02812 6.15639C9.0964 6.29473 9.2284 6.39064 9.38106 6.41282L11.6801 6.74689L10.0165 8.36851Z" fill="#FFCC4A"/>
</svg>
