<svg width="33" height="32" viewBox="0 0 33 32" fill="none" xmlns="http://www.w3.org/2000/svg">
<path d="M17.9229 1.84439L20.4893 9.53635C20.8275 10.55 21.7726 11.2366 22.8411 11.245L30.9497 11.3089C32.3907 11.3203 32.9882 13.1592 31.8291 14.0154L25.3066 18.8332C24.4471 19.468 24.0862 20.579 24.4083 21.5979L26.8533 29.3293C27.2878 30.7033 25.7235 31.8398 24.551 31.002L17.9535 26.2876C17.0841 25.6663 15.9159 25.6663 15.0465 26.2876L8.449 31.002C7.27651 31.8398 5.71221 30.7033 6.14672 29.3293L8.59166 21.5979C8.91385 20.579 8.55287 19.468 7.69335 18.8332L1.17093 14.0154C0.0117784 13.1592 0.609285 11.3203 2.05033 11.3089L10.1589 11.245C11.2274 11.2366 12.1725 10.55 12.5107 9.53635L15.0771 1.84439C15.5332 0.477386 17.4668 0.477386 17.9229 1.84439Z" fill="#272C3B" stroke="#A4A4A4"/>
</svg>
