<svg width="16" height="16" viewBox="0 0 16 16" fill="none" xmlns="http://www.w3.org/2000/svg">
<path d="M16 7.93789V10.7191C15.967 11.5483 14.7828 11.5477 14.75 10.7191V9.48441L12.761 11.4735C12.6438 11.5907 12.4848 11.6566 12.3191 11.6566H9.1653L5.00471 15.8171C4.76065 16.0612 4.36491 16.0612 4.12085 15.8171C3.87676 15.5731 3.87676 15.1773 4.12085 14.9333L8.4645 10.5896C8.58169 10.4724 8.74068 10.4066 8.90643 10.4066H12.0602L13.9039 8.56287H12.5626C11.7334 8.52987 11.734 7.34562 12.5626 7.3129H15.375C15.7202 7.3129 16 7.59271 16 7.93789ZM15.375 12.594C15.0298 12.594 14.75 12.8738 14.75 13.219V15.3752C14.783 16.2044 15.9673 16.2038 16 15.3752V13.219C16 12.8738 15.7202 12.594 15.375 12.594ZM12.8751 12.594C12.5299 12.594 12.2501 12.8738 12.2501 13.219V15.3752C12.2831 16.2044 13.4674 16.2038 13.5001 15.3752V13.219C13.5001 12.8738 13.2203 12.594 12.8751 12.594ZM10.3751 12.594C10.03 12.594 9.75016 12.8738 9.75016 13.219V15.3752C9.78316 16.2044 10.9674 16.2038 11.0001 15.3752V13.219C11.0001 12.8738 10.7203 12.594 10.3751 12.594ZM7.8752 14.5002C7.53002 14.5002 7.25022 14.78 7.25022 15.1252V15.3752C7.28322 16.2044 8.46747 16.2038 8.50019 15.3752V15.1252C8.50019 14.78 8.22038 14.5002 7.8752 14.5002ZM6.59398 10.5941C6.93916 10.5941 7.21897 10.3143 7.21897 9.96909V9.58522C9.17817 8.85999 8.70506 5.9779 6.59395 5.93793C5.76297 5.90403 5.767 4.72674 6.59398 4.69243C6.84491 4.69243 7.04525 4.82537 7.14366 5.0572C7.27853 5.37492 7.64546 5.5231 7.9632 5.38826C8.28091 5.25339 8.42913 4.88646 8.29426 4.56872C8.08504 4.07588 7.69633 3.71549 7.21897 3.54765V3.12547C7.18597 2.29624 6.00171 2.29686 5.969 3.12547V3.54952C4.01261 4.27472 4.47919 7.14778 6.59401 7.18787C7.42034 7.22209 7.42559 8.40791 6.59398 8.44231C6.35092 8.44231 6.10987 8.28372 6.00781 8.05663C5.86631 7.7418 5.49635 7.6013 5.18155 7.7428C4.86671 7.88429 4.72618 8.25422 4.86771 8.56906C5.08102 9.04364 5.48982 9.40823 5.969 9.58138V9.96906C5.969 10.3143 6.2488 10.5941 6.59398 10.5941ZM4.43766 12.7339C4.68896 12.7339 4.92599 12.5812 5.02133 12.3324C5.14492 12.0102 4.9838 11.6487 4.6615 11.5251C-0.780032 9.32785 0.681402 1.34838 6.56283 1.25054C9.14933 1.25054 11.3499 3.09637 11.7953 5.6395C11.8548 5.97946 12.1787 6.20683 12.5187 6.1473C12.8587 6.08777 13.086 5.76388 13.0265 5.42388C12.7634 3.92173 11.9748 2.54833 10.8058 1.55669C6.59267 -2.04435 -0.0184562 1.01421 0.000418316 6.56298C-0.0310809 9.23058 1.71941 11.7656 4.21404 12.6923C4.28766 12.7205 4.36325 12.7339 4.43766 12.7339Z" fill="#64FF4A"/>
</svg>
